<svg width="72.25" height="52.720000000000006" xmlns="http://www.w3.org/2000/svg">

 <g>
  <title>background</title>
  <rect fill="none" id="canvas_background" height="602" width="802" y="-1" x="-1"/>
 </g>
 <g>
  <title>Layer 1</title>
  <ellipse id="svg_1" fill="#c1875d" ry="6.2" rx="4.8" cy="28.82" cx="13.44"/>
  <ellipse id="svg_2" fill="#c1875d" ry="6.2" rx="4.8" cy="32.52" cx="40.67"/>
  <path id="svg_3" fill="#c1875d" d="m15.24,22.42l0,23.2c0,2.8 -1.3,3.1 -2.9,3.1s-2.9,-0.2 -2.9,-3.1l0,-23.2l5.8,0"/>
  <path id="svg_4" fill="#89664c" d="m8.64,50.72l7.3,0l-0.7,-5.1a3.71,3.71 0 0 0 -2.9,-1a3.7,3.7 0 0 0 -2.9,1l-0.8,5.1"/>
  <path id="svg_5" fill="#c1875d" d="m42.1,22.42l0,23.2c0,2.8 -1.3,3.1 -2.9,3.1s-2.9,-0.2 -2.9,-3.1l0,-23.2l5.8,0"/>
  <path id="svg_6" fill="#89664c" d="m35.55,50.72l7.3,0l-0.7,-5.1a3.71,3.71 0 0 0 -2.9,-1a3.7,3.7 0 0 0 -2.9,1l-0.8,5.1"/>
  <path id="svg_7" fill="#e0ac7e" d="m11.54,22.42l0,23.2c0,2.8 -1.3,3.1 -2.9,3.1s-2.9,-0.2 -2.9,-3.1l0,-23.2l5.8,0z"/>
  <path id="svg_8" fill="#c1875d" d="m4.94,50.72l7.3,0l-0.7,-5.1a3.71,3.71 0 0 0 -2.9,-1c-2.2,0 -2.9,1 -2.9,1l-0.8,5.1"/>
  <path id="svg_9" fill="#e0ac7e" d="m4.14,30.32c-0.2,-4.8 3.4,-9.5 3.4,-9.6l-0.7,-0.5c-0.2,0.2 -3.8,5 -3.6,10.1l0.9,0"/>
  <path id="svg_10" fill="#e0ac7e" d="m3.74,27.62a8.51,8.51 0 0 1 1.2,3.2a6.79,6.79 0 0 1 -1.2,2.6a8.64,8.64 0 0 1 -1.2,-3.2a6.58,6.58 0 0 1 1.2,-2.6"/>
  <path id="svg_11" fill="#e0ac7e" d="m5.64,24.62c-0.5,5.8 12,7.9 21.5,7.9c12.3,0 18.71,-4.22 18,-8.91c-1.45,-7.13 -4.52,-8.57 -8.45,-10c-5.9,-2 -10.65,-1.22 -16.85,-0.62c-7.8,0.7 -14.2,5.2 -14.2,11.6"/>
  <path id="svg_12" fill="#e0ac7e" d="m21.57,15.19c0.11,5.39 3.43,9.81 7.43,9.72s7.14,-4.52 7,-10c0,-0.31 -3.47,-9.82 -7.44,-9.73s-7,9.72 -7,10.06"/>
  <path id="svg_13" fill="#e0ac7e" d="m39.87,22.42l0,23.2c0,2.8 -1.3,3.1 -2.9,3.1s-2.9,-0.2 -2.9,-3.1l0,-23.2l5.8,0"/>
  <path id="svg_14" fill="#c1875d" d="m33.32,50.72l7.3,0l-0.7,-5.1a3.71,3.71 0 0 0 -2.9,-1c-2.2,0 -2.9,1 -2.9,1l-0.8,5.1"/>
  <path id="svg_15" fill="#e0ac7e" d="m64.83,14.88c-4.9,2.12 -6.83,0.12 -6.83,0.12c9.3,10.8 -3.59,30.14 -21.69,13.84c-21.6,-19.4 -2.5,-8.1 0.6,-8.1s16.5,6.9 13.39,-3.24c-4.65,-15.1 8,-10.2 14.4,-9.9c3.4,0.2 3.4,2.3 5,3.2c0.9,0.6 0.5,1.2 -0.1,1.3l0,0.4a1.14,1.14 0 0 1 -0.8,2.1a5.29,5.29 0 0 0 -4,0.3"/>
  <path id="svg_16" fill="#ffe2b3" d="m58,15c9.6,10 -3.15,29.37 -20.09,15.14c17.52,9.1 23.22,-11.06 20.09,-15.14"/>
  <ellipse id="svg_17" fill="#e0ac7e" ry="6.2" rx="4.8" cy="33.42" cx="36.97"/>
  <ellipse id="svg_18" fill="#e0ac7e" ry="6.2" rx="4.8" cy="28.02" cx="10.44"/>
  <path id="svg_19" fill="#e0ac7e" d="m49.43,9.48c1.4,-2.9 6.5,-6.7 10.4,-6.5c0,0 -1.4,0.6 -1.4,1.7c0,0 1.8,0 2.3,0.5c-1.4,0.4 -1.6,1 -1.6,1a2.32,2.32 0 0 1 2,0.5c-1.4,0 -1.4,0.3 -3.2,1.4s-8.5,1.4 -8.5,1.4"/>
  <path id="svg_20" fill="#89664c" d="m67.63,9.68c-0.1,0.1 -0.5,0 -0.9,-0.3s-0.7,-0.6 -0.6,-0.7s0.5,0 0.9,0.3s0.7,0.6 0.6,0.7"/>
  <ellipse id="svg_21" fill="#c1875d" ry="1.5" rx="2.1" cy="10.18" cx="57.53"/>
  <ellipse id="svg_22" fill="#3e4347" ry="0.7" rx="0.9" cy="9.88" cx="57.53"/>
  <path id="svg_23" fill="#c1875d" d="m53.73,8.78c-0.3,-0.4 -2.8,-1 -4.1,-1.1s-0.2,3 2.1,3.4a1.66,1.66 0 0 0 2,-2.3"/>
  <path id="svg_24" fill="#e0ac7e" d="m53.33,9.48c-0.2,-0.4 -2.2,-0.9 -3.2,-0.9s-0.1,2.5 1.6,2.9a1.45,1.45 0 0 0 1.69,-1.15a1.54,1.54 0 0 0 -0.09,-0.85"/>
  <path id="svg_25" fill="#89664c" d="m69.63,12.18c-2.6,0 -6.5,1.3 -8.5,0.7c2.5,1 5.9,-0.2 8.5,-0.2l0,-0.5"/>
  <path id="svg_35" d="m9.89,20.56a1.51,1.51 0 0 1 0.4,-2.1a0.57,0.57 0 0 0 0.13,-0.08a1.39,1.39 0 0 1 1,-0.11l-0.07,0.44a0.9,0.9 0 0 0 -0.68,0.08a1.07,1.07 0 0 0 -0.31,1.48l0,0c0.34,0.63 0.92,0.9 1.41,0.59a1.1,1.1 0 0 0 0.5,-0.62l0.37,0.2a1.58,1.58 0 0 1 -0.7,0.83a1.47,1.47 0 0 1 -2,-0.56l-0.05,-0.15z"/>
  <path transform="rotate(40 30.493873596191403,15.840560913085941) " id="svg_26" d="m29.25,16.56a1.51,1.51 0 0 1 0.4,-2.1a0.57,0.57 0 0 0 0.13,-0.08a1.39,1.39 0 0 1 1,-0.11l-0.07,0.44a0.9,0.9 0 0 0 -0.68,0.08a1.07,1.07 0 0 0 -0.31,1.48l0,0c0.34,0.63 0.92,0.9 1.41,0.59a1.1,1.1 0 0 0 0.5,-0.62l0.37,0.2a1.58,1.58 0 0 1 -0.7,0.83a1.47,1.47 0 0 1 -2,-0.56l-0.05,-0.15z"/>
  <path id="svg_27" d="m12.69,19.92c-0.27,-0.62 0.13,-1.17 1.29,-1.83c-0.15,-0.36 -0.43,-0.66 -0.9,-0.47a1.75,1.75 0 0 0 -0.72,0.68l-0.36,-0.25a2.34,2.34 0 0 1 1,-0.86c0.7,-0.29 1.2,0 1.5,0.75l0.76,1.76l-0.41,0.18l-0.18,-0.33l0,0a1.7,1.7 0 0 1 -0.78,0.81a0.85,0.85 0 0 1 -1.16,-0.36a0.3,0.3 0 0 1 -0.04,-0.08zm1.77,-0.72l-0.34,-0.78c-0.94,0.52 -1.13,0.9 -1,1.26a0.47,0.47 0 0 0 0.62,0.28a0.2,0.2 0 0 0 0.08,0a1.2,1.2 0 0 0 0.64,-0.76z"/>
  <path id="svg_28" d="m15,16.42l0.41,-0.13l0.18,0.43l0,0a1.36,1.36 0 0 1 0.78,-0.78a0.81,0.81 0 0 1 1,0.32a1.42,1.42 0 0 1 0.8,-0.86c0.62,-0.18 1,0.13 1.26,0.86l0.57,1.89l-0.51,0.15l-0.49,-1.83c-0.17,-0.56 -0.41,-0.74 -0.79,-0.63s-0.43,0.3 -0.61,0.68l0.64,2.17l-0.51,0.15l-0.57,-1.84c-0.16,-0.55 -0.41,-0.74 -0.79,-0.63s-0.43,0.29 -0.61,0.68l0.64,2.16l-0.51,0.15l-0.89,-2.94z"/>
  <path id="svg_29" d="m20.3,16.58a1.53,1.53 0 0 1 1.1,-1.86c0.8,-0.1 1.32,0.35 1.48,1.22a1.53,1.53 0 0 1 0,0.3l-2.07,0.36a1,1 0 0 0 1.1,0.89l0.11,0a1.37,1.37 0 0 0 0.72,-0.38l0.24,0.31a1.75,1.75 0 0 1 -1,0.49a1.49,1.49 0 0 1 -1.74,-1.18c0.07,-0.07 0.07,-0.11 0.06,-0.15zm2.12,-0.58c-0.07,-0.62 -0.45,-0.9 -0.93,-0.82a1,1 0 0 0 -0.71,1.09l1.64,-0.27z"/>
  <path id="svg_30" d="m23.73,17l-0.4,-3.91l0.51,-0.06l0.46,4c0,0.16 0.1,0.21 0.18,0.2l0.11,0l0.12,0.39a1.15,1.15 0 0 1 -0.31,0c-0.4,0.05 -0.63,-0.19 -0.67,-0.62z"/>
  <path id="svg_32" d="m32,16.9c0.13,-0.66 0.77,-0.89 2.1,-0.77c0.08,-0.4 0,-0.81 -0.49,-0.95a1.8,1.8 0 0 0 -1,0.11l-0.12,-0.39a2.25,2.25 0 0 1 1.28,-0.15c0.74,0.14 1,0.7 0.81,1.46l-0.36,1.88l-0.46,-0.09l0,-0.32l0,0a1.71,1.71 0 0 1 -1.1,0.24a0.85,0.85 0 0 1 -0.76,-0.93a0.3,0.3 0 0 1 0.1,-0.09zm1.87,0.41l0.16,-0.84c-1,-0.09 -1.45,0.11 -1.52,0.49a0.48,0.48 0 0 0 0.35,0.58l0.09,0a1.26,1.26 0 0 0 0.92,-0.21l0,-0.02z"/>
  <path id="svg_33" d="m34.72,18l0.35,-0.26a1.35,1.35 0 0 0 0.77,0.62a0.56,0.56 0 0 0 0.73,-0.29c0.07,-0.21 -0.23,-0.55 -0.52,-0.77s-0.78,-0.62 -0.64,-1.13a0.94,0.94 0 0 1 1.2,-0.58l0.09,0a1.61,1.61 0 0 1 0.82,0.61l-0.33,0.25a1.13,1.13 0 0 0 -0.61,-0.46a0.49,0.49 0 0 0 -0.67,0.26c-0.07,0.19 0.2,0.49 0.51,0.71s0.81,0.61 0.64,1.18a1,1 0 0 1 -1.28,0.59l-0.07,0a1.86,1.86 0 0 1 -0.99,-0.73z"/>
  <path id="svg_34" d="m37.69,17.6a1.51,1.51 0 0 1 1.88,-1l0,0a1.21,1.21 0 0 1 0.62,1.82a1.15,1.15 0 0 1 -0.14,0.27l-2,-0.78a1,1 0 0 0 0.44,1.35l0.13,0.05a1.48,1.48 0 0 0 0.81,0.05l0,0.39a1.83,1.83 0 0 1 -1,-0.08a1.48,1.48 0 0 1 -0.89,-1.91a0.58,0.58 0 0 1 0.15,-0.16zm2.08,0.56c0.24,-0.58 0.1,-1 -0.35,-1.17a1,1 0 0 0 -1.19,0.57l1.54,0.6z"/>
  <text xml:space="preserve" text-anchor="start" font-family="Helvetica, Arial, sans-serif" font-size="7" id="svg_36" y="15.99857" x="25.07445" fill-opacity="null" stroke-opacity="null" stroke-width="0" stroke="null" fill="#000000">_</text>
  <text stroke="null" transform="matrix(1.951436996459961,0,0,2.0720417499542236,-25.540136873722076,-7.688549425452948) " xml:space="preserve" text-anchor="start" font-family="Helvetica, Arial, sans-serif" font-size="1" id="svg_37" y="7.20896" x="26.70604" fill-opacity="null" stroke-opacity="null" stroke-width="0" fill="#000000">oops</text>
 </g>
</svg>