<svg xmlns="http://www.w3.org/2000/svg" viewBox="0 0 1920 1920">
    <style>
        .st0{fill:#fff}.st1,.st2{fill:none;stroke:#231f20;stroke-width:50;stroke-linejoin:round;stroke-miterlimit:10}.st2{stroke-linecap:round}
    </style>
    <path class="st0" d="M567 561s-59.7-59.7-17.1-78.9c42.7-19.2 81.1 59.7 81.1 59.7s42.7-91.4 78.9-62.8c36.3 28.6-23.5 103.3-23.5 103.3s78.9 42.7 78.9 175-64 72.5-57.6 172.8v104.5s14.1 49.7 71.8 49.7S870 902 870 902s40.5-180.9 300.8-180.9 320 367 320 367 117.3 123.7 36.3 204.8c0 0 132.3 153.6-21.3 153.6h-390.4s-25.6-59.7 40.5-68.3c0 0-145.2-21.3-171.8 12.8 0 0-18.2 36.3 0 55.5H453.9s-25.6-102.4 160-115.2c0 0 55.5-6.4 29.9-66.1 0 0-85.3-42.7-91.7-315.8v-160s-85.6-2.1-99.3-32l-43.6 23.5s-59.7 23.5-66.1-40.5c0 0-32-119.5 113.1-110.9L567 561z" id="Layer_4"/>
    <g id="STROKES">
        <path class="st1" d="M567 561s-59.7-59.7-17.1-78.9c42.7-19.2 81.1 59.7 81.1 59.7s42.7-91.4 78.9-62.8c36.3 28.6-23.5 103.3-23.5 103.3s78.9 42.7 78.9 175-64 72.5-57.6 172.8v104.5s14.1 49.7 71.8 49.7S870 902 870 902s40.5-180.9 300.8-180.9 320 367 320 367 117.3 123.7 36.3 204.8c0 0 132.3 153.6-21.3 153.6h-390.4s-25.6-59.7 40.5-68.3c0 0-145.2-21.3-171.8 12.8 0 0-18.2 36.3 0 55.5H453.9s-25.6-102.4 160-115.2c0 0 55.5-6.4 29.9-66.1 0 0-85.3-42.7-91.7-315.8v-160s-85.6-2.1-99.3-32l-43.6 23.5s-59.7 23.5-66.1-40.5c0 0-32-119.5 113.1-110.9L567 561z"/>
        <path class="st1" d="M468.8 612.2v565c0 28.4-19.9 51.6-44.2 51.6-24.3 0-44.2-23.2-44.2-60.2V784.8"/>
        <path class="st2" d="M596 642.2h4"/>
    </g>
</svg>
